<svg width="200" height="200" viewBox="0 0 200 200" fill="current" xmlns="http://www.w3.org/2000/svg">
<path d="M100,0c55.228,0,100,44.772,100,100s-44.772,100-100,100S0,155.228,0,100S44.772,0,100,0z
	 M133.099,78.605c-2.398-1.395-5.517-1.395-8.155,0l-18.709,10.698L93.523,96.28l-18.708,10.698c-2.399,1.395-5.517,1.395-8.155,0
	l-14.871-8.372c-2.398-1.395-4.077-3.954-4.077-6.744V75.349c0-2.791,1.439-5.349,4.077-6.744l14.631-8.14
	c2.398-1.395,5.517-1.395,8.155,0l14.631,8.14c2.399,1.395,4.078,3.954,4.078,6.744v10.698l12.712-7.209V68.139
	c0-2.791-1.439-5.349-4.077-6.744L74.815,46.046c-2.399-1.395-5.517-1.395-8.155,0L39.077,61.395C36.439,62.791,35,65.349,35,68.139
	v30.93c0,2.791,1.439,5.349,4.078,6.744l27.583,15.349c2.399,1.395,5.517,1.395,8.155,0l18.708-10.465l12.712-7.209l18.709-10.465
	c2.398-1.395,5.517-1.395,8.155,0l14.631,8.139c2.398,1.396,4.078,3.954,4.078,6.744v16.512c0,2.791-1.439,5.349-4.078,6.744
	l-14.631,8.372c-2.398,1.395-5.517,1.395-8.155,0l-14.631-8.14c-2.398-1.395-4.078-3.954-4.078-6.744v-10.698l-12.712,7.209v10.698
	c0,2.791,1.439,5.349,4.078,6.744l27.583,15.349c2.398,1.395,5.517,1.395,8.155,0l27.583-15.349
	c2.399-1.395,4.078-3.954,4.078-6.744v-30.93c0-2.791-1.439-5.349-4.078-6.744L133.099,78.605z"/>
</svg>
