<svg xmlns="http://www.w3.org/2000/svg" viewBox="0 0 1000 1000" fill="current">
<path d="M588.45,739.12v-68.75h-110.67v68.75h-159.29V460.78c0-138.61,31.86-186.12,179.41-186.12h62.04c147.55,0,186.68,47.51,186.68,186.12v278.34h-158.17Zm0-278.34c0-29.06-4.47-37.45-30.18-37.45h-50.86c-25.15,0-29.62,8.38-29.62,37.45v64.28h110.67v-64.28Z" />
<path d="M544.39,704.65v-68.75h-110.67v68.75h-159.29V426.31c0-138.61,31.86-186.12,179.41-186.12h62.04c147.55,0,186.68,47.51,186.68,186.12v278.34h-158.17Zm0-278.34c0-29.06-4.47-37.45-30.18-37.45h-50.86c-25.15,0-29.62,8.38-29.62,37.45v64.28h110.67v-64.28Z" style="fill:#fff; stroke:#333; stroke-miterlimit:10; stroke-width:5px;"/>
</svg>