<?xml version="1.0" encoding="utf-8"?>
<!-- Generator: Adobe Illustrator 27.0.0, SVG Export Plug-In . SVG Version: 6.00 Build 0)  -->
<svg version="1.1" id="レイヤー_1" xmlns="http://www.w3.org/2000/svg" xmlns:xlink="http://www.w3.org/1999/xlink" x="0px"
	 y="0px" viewBox="0 0 1000 1000" style="enable-background:new 0 0 1000 1000;" xml:space="preserve">
<style type="text/css">
	.st0{fill:#FFFFFF;stroke:#333333;stroke-width:5;stroke-miterlimit:10;}
</style>
<g>
	<path d="M580.9,739.1v-82.7c0-22.9-10.1-33-33.5-33h-64.3v115.7H312.6V283h282.8c96.7,0,154.3,35.8,154.3,161.5v26.8
		c0,36.3-10.6,64.8-30.2,86.1c22.9,17.3,31.3,44.7,31.3,83.8v97.8L580.9,739.1L580.9,739.1z M583.7,463c0-21.8-8.9-29.6-33.5-29.6
		h-67.1v60.4h67.1c25.2,0,33.5-11.7,33.5-25.7V463L583.7,463z"/>
	<path class="st0" d="M536.8,704.7v-82.7c0-22.9-10.1-33-33.5-33H439v115.7H268.6V248.6h282.8c96.7,0,154.3,35.8,154.3,161.5v26.8
		c0,36.3-10.6,64.8-30.2,86.1c22.9,17.3,31.3,44.7,31.3,83.8v97.8L536.8,704.7L536.8,704.7z M539.6,428.6c0-21.8-8.9-29.6-33.5-29.6
		H439v60.4h67.1c25.1,0,33.5-11.7,33.5-25.7V428.6L539.6,428.6z"/>
</g>
</svg>
