<svg xmlns="http://www.w3.org/2000/svg" viewBox="0 0 1000 1000" fill="current">
<path d="M608.29,738.56H314.3v-141.41h259.9c8.38,0,11.18-3.35,11.18-10.62v-1.68c0-7.83-3.91-10.62-11.18-10.62h-111.22c-112.9,0-157.61-46.39-157.61-134.14v-16.21c0-101.72,58.69-140.85,158.73-140.85h264.37v144.76h-235.3c-8.94,0-12.85,4.47-12.85,10.62v2.24c0,6.71,2.79,12.3,12.85,12.3h124.08c92.78,0,141.41,50.3,141.41,117.37v29.06c0,74.33-41.36,139.17-150.35,139.17Z" />
<path d="M564.24,704.09H270.25v-141.41h259.9c8.38,0,11.18-3.35,11.18-10.62v-1.68c0-7.82-3.91-10.62-11.18-10.62h-111.22c-112.9,0-157.61-46.39-157.61-134.14v-16.21c0-101.72,58.69-140.85,158.73-140.85h264.37v144.76h-235.3c-8.94,0-12.85,4.47-12.85,10.62v2.24c0,6.71,2.79,12.3,12.85,12.3h124.08c92.78,0,141.41,50.3,141.41,117.37v29.06c0,74.33-41.36,139.17-150.35,139.17Z" style="fill:#fff; stroke:#333; stroke-miterlimit:10; stroke-width:5px;"/>
</svg>